# xmcd
#
# Track frame offsets:
#	150
#	3303
#	17994
#	35931
#	48640
#	58046
#	68366
#	75391
#	88227
#	100803
#	114354
#	127832
#	139690
#	148555
#	151720
#	162823
#	182573
#	189607
#	222131
#	238754
#	257681
#	270092
#	285657
#	294960
#	308842
#	314563
#
# Disc length: 4299 seconds
#
# Revision: 0
# Processed by: cddbd v1.5.2PL0 Copyright (c) Steve Scherf et al.
# Submitted via: audiograbber 1.83.01
#
DISCID=6210c91a
DTITLE=ZZZ - Festlich klingende Weihnachten mit
DYEAR=2005
DGENRE=Christmas
TTITLE0=Frauenkirche Dresden - Glockengeläut
TTITLE1=Aurora and Dominique Lacasa - Stille Nacht, heilige Nacht
TTITLE2=Jörg Faerber Württemberg Chamber Orchestraa - Weihnachtskonzert C-Dur o
TTITLE2=p. 7 Nr. 12 Teil 1: Pastorale
TTITLE3=Jörg Faerber Württemberg Chamber Orchestraa - Weihnachtskonzert C-Dur o
TTITLE3=p. 7 Nr. 12 Teil 2: Largo
TTITLE4=Jörg Faerber Württemberg Chamber Orchestraa - Weihnachtskonzert C-Dur o
TTITLE4=p. 7 Nr. 12 Teil 3: Allegro
TTITLE5=Choir Of Trinity College Cambridge - Ave Maria
TTITLE6=Ursula Bunata - Rezitation - Der Tannenbaum, Teil 1 - Theodor Storm
TTITLE7=Jörg Faerber Württemberg Chamber Orchestraa - Ave verum Corpus
TTITLE8=Aurora Lacasa - Guten Abend, schön Abend
TTITLE9=Stuttgarter Hymnus-Chorknaben - Nun singet und seid froh
TTITLE10=Ursula Bunata - Rezitation - Der Tannenbaum, Teil 2 - Theodor Storm
TTITLE11=Kammerchor Und Orchester Der Staatlichen Musikhochschule Kölnn - Der T
TTITLE11=ag, der ist so freudenreich
TTITLE12=Stuttgarter Hymnus-Chorknaben - Freut euch, ihr lieben Christen
TTITLE13=Berliner Mozartchor - Vom Himmel hoch, o Englein kommt
TTITLE14=Aurora Lacasa - Leise rieselt der Schnee
TTITLE15=Ursula Bunata - Rezitation - Der Tannenbaum, Teil 3 - Theodor Storm
TTITLE16=Poznaner Knabenchor - Ihr Kinderlein kommet
TTITLE17=Radio Symphony Orchestra Luxemburg - Orgelsymphonie
TTITLE18=Aurora Lacasa - Petit Papa Noel
TTITLE19=Ursula Bunata - Rezitation - Der Tannenbaum, Teil 4 - Theodor Storm
TTITLE20=Stuttgarter Hymnus-Chorknaben - Uns ist ein Kindlein heut geboren
TTITLE21=Dominique Lacasa - Alle Jahre wieder - O Tannenbaum
TTITLE22=Ursula Bunata - Rezitation - Knecht Ruprecht
TTITLE23=Schwäbischer Singkreis - Quem Pastores
TTITLE24=Choir Of Trinity College Cambridge - Deutsche Messe Sanctus
TTITLE25=Domglocken zu Aachen, Regensburg and Würzburg - Glockengeläut
EXTD=
EXTT0=
EXTT1=
EXTT2=
EXTT3=
EXTT4=
EXTT5=
EXTT6=
EXTT7=
EXTT8=
EXTT9=
EXTT10=
EXTT11=
EXTT12=
EXTT13=
EXTT14=
EXTT15=
EXTT16=
EXTT17=
EXTT18=
EXTT19=
EXTT20=
EXTT21=
EXTT22=
EXTT23=
EXTT24=
EXTT25=
PLAYORDER=
